<svg width="18" height="21" viewBox="0 0 18 21" fill="none" xmlns="http://www.w3.org/2000/svg">
<path d="M17.998 10.5141C17.9669 9.297 17.9915 8.07762 17.9915 6.85938V3.12037C17.9915 2.18445 17.9883 2.19121 17.1768 1.76713C15.7742 1.03597 14.287 0.58603 12.7495 0.326235C9.92299 -0.152984 7.10176 -0.118107 4.29659 0.523086C2.86085 0.851537 1.47646 1.3251 0.210945 2.13387C0.0556769 2.23284 0 2.34308 0 2.53542C0.00643029 5.30034 -0.00318901 8.06526 0.0117627 10.8302C0.015004 11.2835 0.0760134 11.7492 0.186322 12.1879C0.616681 13.9089 1.42292 15.4297 2.48612 16.8076C4.14456 18.9573 6.23989 20.3724 8.81802 20.9786C8.92619 21.0045 9.0493 21.0079 9.15747 20.9831C10.6703 20.6434 12.0526 19.991 13.2999 19.0327C15.013 17.7143 16.2881 16.0112 17.1864 14.0023C17.6778 12.9033 18.0301 11.7615 17.998 10.5141ZM2.35547 4.04163C2.27622 4.0765 2.19592 4.10913 2.07819 4.15862C3.48611 2.55904 4.94113 2.23169 6.82019 3.00448C7.00217 3.07984 7.18102 3.16536 7.36086 3.24747C7.75164 3.42295 7.98935 3.79754 7.98721 4.23397C7.98506 4.64003 7.73773 5.01913 7.37586 5.17324C7.00112 5.33297 6.57714 5.22949 6.27842 4.90554C6.2538 4.87852 6.22808 4.85265 6.20345 4.82568C4.9508 3.51742 3.98396 3.32057 2.35547 4.04163ZM7.95725 7.34761C6.87477 8.71315 4.22057 8.77165 3.02997 7.34536C4.23129 5.9674 6.85872 5.97636 7.95725 7.34761ZM10.0022 18.8009C10.0011 18.8583 9.96685 18.928 9.92727 18.9708C9.6307 19.2925 9.32873 19.6097 9.00116 19.9584C8.66814 19.6063 8.34908 19.2722 8.03536 18.9325C8.00326 18.8988 7.99254 18.8302 7.99254 18.7784C7.98935 18.1339 7.9904 17.4893 7.9904 16.8234H10.0054C10.0054 17.495 10.0076 18.1474 10.0022 18.8009ZM13.3662 13.2261C12.8887 13.9719 12.2164 14.4117 11.3769 14.5681C10.5889 14.7143 9.85016 14.5692 9.17456 14.1181C9.04183 14.0304 8.954 14.0338 8.82017 14.1181C7.363 15.0315 5.66064 14.6952 4.66703 13.2587C4.13813 12.496 3.6799 11.6794 3.19167 10.8864C3.136 10.7941 3.09637 10.6918 3.0878 10.5456C3.33941 10.6918 3.5996 10.8234 3.83941 10.9876C4.45828 11.4128 5.07711 11.838 5.67988 12.288C6.46684 12.8774 7.33409 12.8324 8.03645 12.1305C8.35766 11.8077 8.67347 11.4781 9.00434 11.1395C9.28059 11.4263 9.56535 11.7188 9.84697 12.0135C10.6457 12.8504 11.4508 12.9078 12.3834 12.2295C13.0643 11.7346 13.7667 11.2711 14.4616 10.7986C14.6018 10.7042 14.756 10.6333 14.9037 10.5512C14.9348 10.5793 14.9659 10.6063 14.9958 10.6344C14.453 11.4983 13.9155 12.3667 13.3662 13.2261ZM10.0386 7.35431C11.1746 5.95724 13.8288 5.97075 14.954 7.35321C13.8416 8.72666 11.1864 8.75704 10.0386 7.35431ZM15.8737 4.11814C15.5204 3.99549 15.1682 3.86614 14.8116 3.75366C13.8459 3.45108 13.0012 3.71318 12.2517 4.38244C11.9883 4.61757 11.7516 4.89203 11.4669 5.09338C11.0247 5.40722 10.4058 5.22724 10.1425 4.75027C9.87374 4.2621 10.0172 3.56691 10.484 3.32623C11.1564 2.97861 11.8534 2.69855 12.6136 2.62094C13.559 2.52532 14.393 2.80538 15.1361 3.40719C15.4026 3.62315 15.6511 3.86504 15.908 4.09562C15.8963 4.10347 15.8855 4.11023 15.8737 4.11814Z" fill="#ffc107"/>
</svg>
